<svg xmlns="http://www.w3.org/2000/svg" width="696" height="96" viewBox="0 0 696 96" role="img" aria-label="PHP, WordPress, WooCommerce, REST API, GraphQL, WPGraphQL"><title>PHP, WordPress, WooCommerce, REST API, GraphQL, WPGraphQL</title><defs><linearGradient id="g" x1="0" y1="0" x2="1" y2="1"><stop offset="0" stop-color="#7C3AED"/><stop offset="1" stop-color="#2563EB"/></linearGradient></defs><rect x="28.0" y="2" width="60" height="60" rx="14" fill="#5B4B8A"/><g transform="translate(42.4 16.4) scale(1.3)"><path fill="#FFFFFF" d="M7.01 10.207h-.944l-.515 2.648h.838c.556 0 .97-.105 1.242-.314.272-.21.455-.559.55-1.049.092-.47.05-.802-.124-.995-.175-.193-.523-.29-1.047-.29zM12 5.688C5.373 5.688 0 8.514 0 12s5.373 6.313 12 6.313S24 15.486 24 12c0-3.486-5.373-6.312-12-6.312zm-3.26 7.451c-.261.25-.575.438-.917.551-.336.108-.765.164-1.285.164H5.357l-.327 1.681H3.652l1.23-6.326h2.65c.797 0 1.378.209 1.744.628.366.418.476 1.002.33 1.752a2.836 2.836 0 0 1-.305.847c-.143.255-.33.49-.561.703zm4.024.715l.543-2.799c.063-.318.039-.536-.068-.651-.107-.116-.336-.174-.687-.174H11.46l-.704 3.625H9.388l1.23-6.327h1.367l-.327 1.682h1.218c.767 0 1.295.134 1.586.401s.378.7.263 1.299l-.572 2.944h-1.389zm7.597-2.265a2.782 2.782 0 0 1-.305.847c-.143.255-.33.49-.561.703a2.44 2.44 0 0 1-.917.551c-.336.108-.765.164-1.286.164h-1.18l-.327 1.682h-1.378l1.23-6.326h2.649c.797 0 1.378.209 1.744.628.366.417.477 1.001.331 1.751zM17.766 10.207h-.943l-.516 2.648h.838c.557 0 .971-.105 1.242-.314.272-.21.455-.559.551-1.049.092-.47.049-.802-.125-.995s-.524-.29-1.047-.29z"/></g><text x="58.0" y="86" text-anchor="middle" font-family="Segoe UI, -apple-system, Helvetica, Arial, sans-serif" font-size="14" font-weight="600" fill="#E6EDF3">PHP</text><rect x="144.0" y="2" width="60" height="60" rx="14" fill="#21759B"/><g transform="translate(158.4 16.4) scale(1.3)"><path fill="#FFFFFF" d="M21.469 6.825c.84 1.537 1.318 3.3 1.318 5.175 0 3.979-2.156 7.456-5.363 9.325l3.295-9.527c.615-1.54.82-2.771.82-3.864 0-.405-.026-.78-.07-1.11m-7.981.105c.647-.03 1.232-.105 1.232-.105.582-.075.514-.93-.067-.899 0 0-1.755.135-2.88.135-1.064 0-2.85-.15-2.85-.15-.585-.03-.661.855-.075.885 0 0 .54.061 1.125.09l1.68 4.605-2.37 7.08L5.354 6.9c.649-.03 1.234-.1 1.234-.1.585-.075.516-.93-.065-.896 0 0-1.746.138-2.874.138-.2 0-.438-.008-.69-.015C4.911 3.15 8.235 1.215 12 1.215c2.809 0 5.365 1.072 7.286 2.833-.046-.003-.091-.009-.141-.009-1.06 0-1.812.923-1.812 1.914 0 .89.513 1.643 1.06 2.531.411.72.89 1.643.89 2.977 0 .915-.354 1.994-.821 3.479l-1.075 3.585-3.9-11.61.001.014zM12 22.784c-1.059 0-2.081-.153-3.048-.437l3.237-9.406 3.315 9.087c.024.053.05.101.078.149-1.12.393-2.325.609-3.582.609M1.211 12c0-1.564.336-3.05.935-4.39L7.29 21.709C3.694 19.96 1.212 16.271 1.211 12M12 0C5.385 0 0 5.385 0 12s5.385 12 12 12 12-5.385 12-12S18.615 0 12 0"/></g><text x="174.0" y="86" text-anchor="middle" font-family="Segoe UI, -apple-system, Helvetica, Arial, sans-serif" font-size="14" font-weight="600" fill="#E6EDF3">WordPress</text><rect x="260.0" y="2" width="60" height="60" rx="14" fill="#7F54B3"/><g transform="translate(266.0 8.0) scale(2.0)"><path fill="#FFFFFF" d="M.754 9.58a.754.754 0 00-.754.758v2.525c0 .42.339.758.758.758h3.135l1.431.799-.326-.799h2.373a.757.757 0 00.758-.758v-2.525a.757.757 0 00-.758-.758H.754zm2.709.445h.03c.065.001.124.023.179.067a.26.26 0 01.103.19.29.29 0 01-.033.16c-.13.239-.236.64-.322 1.199-.083.541-.114.965-.094 1.267a.392.392 0 01-.039.219.213.213 0 01-.176.12c-.086.006-.177-.034-.263-.124-.31-.316-.555-.788-.735-1.416-.216.425-.375.744-.478.957-.196.376-.363.568-.502.578-.09.007-.166-.069-.233-.228-.17-.436-.352-1.277-.548-2.524a.297.297 0 01.054-.222c.047-.064.116-.095.21-.102.169-.013.265.065.288.238.103.695.217 1.284.336 1.766l.727-1.387c.066-.126.15-.192.25-.199.146-.01.237.083.273.28.083.441.188.817.315 1.136.086-.844.233-1.453.44-1.828a.255.255 0 01.218-.147zm1.293.36c.056 0 .116.006.18.02.232.05.411.177.53.386.107.18.161.395.161.654 0 .343-.087.654-.26.94-.2.332-.459.5-.781.5a.88.88 0 01-.18-.022.763.763 0 01-.531-.384 1.287 1.287 0 01-.158-.659c0-.342.085-.655.258-.937.202-.333.462-.498.78-.498zm2.084 0c.056 0 .116.006.18.02.236.05.411.177.53.386.107.18.16.395.16.654 0 .343-.086.654-.259.94-.2.332-.459.5-.781.5a.88.88 0 01-.18-.022.763.763 0 01-.531-.384 1.287 1.287 0 01-.16-.659c0-.342.087-.655.26-.937.202-.333.462-.498.78-.498zm4.437.047c-.305 0-.546.102-.718.304-.173.203-.256.49-.256.856 0 .395.086.697.256.906.17.21.418.316.744.316.315 0 .559-.107.728-.316.17-.21.256-.504.256-.883s-.087-.673-.26-.879c-.176-.202-.424-.304-.75-.304zm-1.466.002a1.13 1.13 0 00-.84.326c-.223.22-.332.499-.332.838 0 .362.108.658.328.88.22.223.505.336.861.336.103 0 .22-.016.346-.052v-.54c-.117.034-.216.051-.303.051a.545.545 0 01-.422-.177c-.106-.12-.16-.278-.16-.48 0-.19.053-.348.156-.468a.498.498 0 01.397-.181c.103 0 .212.015.332.049v-.537a1.394 1.394 0 00-.363-.045zm12.414 0a1.135 1.135 0 00-.84.326c-.223.22-.332.499-.332.838 0 .362.108.658.328.88.22.223.506.336.861.336.103 0 .22-.016.346-.052v-.54c-.116.034-.216.051-.303.051a.545.545 0 01-.422-.177c-.106-.12-.16-.278-.16-.48 0-.19.053-.348.156-.468a.498.498 0 01.397-.181c.103 0 .212.015.332.049v-.537a1.394 1.394 0 00-.363-.045zm-9.598.06l-.29 2.264h.579l.156-1.559.395 1.559h.412l.379-1.555.164 1.555h.603l-.304-2.264h-.791l-.12.508c-.03.13-.06.264-.087.4l-.067.352a29.97 29.97 0 00-.258-1.26h-.771zm2.768 0l-.29 2.264h.579l.156-1.559.396 1.559h.412l.375-1.555.165 1.555h.603l-.305-2.264h-.789l-.119.508c-.03.13-.06.264-.086.4l-.066.352c-.063-.352-.15-.771-.26-1.26h-.771zm3.988 0v2.264h.611v-1.031h.012l.494 1.03h.645l-.489-1.019a.61.61 0 00.37-.552.598.598 0 00-.25-.506c-.167-.123-.394-.186-.68-.186h-.713zm3.377 0v2.264H24v-.483h-.63v-.414h.54v-.468h-.54v-.416h.626v-.483H22.76zm-4.793.004v2.264h1.24v-.483h-.627v-.416h.541v-.468h-.54v-.415h.622v-.482h-1.236zm2.025.432c.146.003.25.025.313.072.063.046.091.12.091.227 0 .156-.135.236-.404.24v-.54zm-15.22.011c-.104 0-.205.069-.301.211a1.078 1.078 0 00-.2.639c0 .096.02.2.06.303.049.13.117.198.196.215.083.016.173-.02.27-.106.123-.11.205-.273.252-.492.016-.077.023-.16.023-.246 0-.097-.02-.2-.06-.303-.05-.13-.116-.198-.196-.215a.246.246 0 00-.045-.006zm2.083 0c-.103 0-.204.069-.3.211a1.078 1.078 0 00-.2.639c0 .096.02.2.06.303.049.13.117.198.196.215.083.016.173-.02.27-.106.123-.11.205-.273.252-.492.013-.077.023-.16.023-.246 0-.097-.02-.2-.06-.303-.05-.13-.116-.198-.196-.215a.246.246 0 00-.045-.006zm4.428.006c.233 0 .354.218.354.66-.004.273-.038.46-.098.553a.293.293 0 01-.262.139.266.266 0 01-.242-.139c-.056-.093-.084-.28-.084-.562 0-.436.11-.65.332-.65Z"/></g><text x="290.0" y="86" text-anchor="middle" font-family="Segoe UI, -apple-system, Helvetica, Arial, sans-serif" font-size="14" font-weight="600" fill="#E6EDF3">WooCommerce</text><rect x="376.0" y="2" width="60" height="60" rx="14" fill="#475569"/><g transform="translate(390.4 16.4) scale(1.3)" fill="none" stroke="#FFFFFF" stroke-width="2" stroke-linecap="round" stroke-linejoin="round"><path d="M8 3H7a2 2 0 0 0-2 2v5a2 2 0 0 1-2 2 2 2 0 0 1 2 2v5c0 1.1.9 2 2 2h1" />
  <path d="M16 21h1a2 2 0 0 0 2-2v-5c0-1.1.9-2 2-2a2 2 0 0 1-2-2V5a2 2 0 0 0-2-2h-1" /></g><text x="406.0" y="86" text-anchor="middle" font-family="Segoe UI, -apple-system, Helvetica, Arial, sans-serif" font-size="14" font-weight="600" fill="#E6EDF3">REST API</text><rect x="492.0" y="2" width="60" height="60" rx="14" fill="#BE185D"/><g transform="translate(506.4 16.4) scale(1.3)"><path fill="#FFFFFF" d="M12.002 0a2.138 2.138 0 1 0 0 4.277 2.138 2.138 0 1 0 0-4.277zm8.54 4.931a2.138 2.138 0 1 0 0 4.277 2.138 2.138 0 1 0 0-4.277zm0 9.862a2.138 2.138 0 1 0 0 4.277 2.138 2.138 0 1 0 0-4.277zm-8.54 4.931a2.138 2.138 0 1 0 0 4.276 2.138 2.138 0 1 0 0-4.276zm-8.542-4.93a2.138 2.138 0 1 0 0 4.276 2.138 2.138 0 1 0 0-4.277zm0-9.863a2.138 2.138 0 1 0 0 4.277 2.138 2.138 0 1 0 0-4.277zm8.542-3.378L2.953 6.777v10.448l9.049 5.224 9.047-5.224V6.777zm0 1.601 7.66 13.27H4.34zm-1.387.371L3.97 15.037V7.363zm2.774 0 6.646 3.838v7.674zM5.355 17.44h13.293l-6.646 3.836z"/></g><text x="522.0" y="86" text-anchor="middle" font-family="Segoe UI, -apple-system, Helvetica, Arial, sans-serif" font-size="14" font-weight="600" fill="#E6EDF3">GraphQL</text><rect x="608.0" y="2" width="60" height="60" rx="14" fill="#0F766E"/><g transform="translate(622.4 16.4) scale(1.3)" fill="none" stroke="#FFFFFF" stroke-width="2" stroke-linecap="round" stroke-linejoin="round"><rect x="16" y="16" width="6" height="6" rx="1" />
  <rect x="2" y="16" width="6" height="6" rx="1" />
  <rect x="9" y="2" width="6" height="6" rx="1" />
  <path d="M5 16v-3a1 1 0 0 1 1-1h12a1 1 0 0 1 1 1v3" />
  <path d="M12 12V8" /></g><text x="638.0" y="86" text-anchor="middle" font-family="Segoe UI, -apple-system, Helvetica, Arial, sans-serif" font-size="14" font-weight="600" fill="#E6EDF3">WPGraphQL</text></svg>
