<svg xmlns="http://www.w3.org/2000/svg" width="348" height="96" viewBox="0 0 348 96" role="img" aria-label="Elementor, Divi, WPBakery"><title>Elementor, Divi, WPBakery</title><defs><linearGradient id="g" x1="0" y1="0" x2="1" y2="1"><stop offset="0" stop-color="#7C3AED"/><stop offset="1" stop-color="#2563EB"/></linearGradient></defs><rect x="28.0" y="2" width="60" height="60" rx="14" fill="#92003B"/><g transform="translate(42.4 16.4) scale(1.3)"><path fill="#FFFFFF" d="M12 0C5.372 0 0 5.372 0 12c0 6.626 5.372 12 12 12s12-5.372 12-12c0-6.626-5.372-12-12-12ZM9 17H7V7H9Zm8 0H11V15h6Zm0-4H11V11h6Zm0-4H11V7h6Z"/></g><text x="58.0" y="86" text-anchor="middle" font-family="Segoe UI, -apple-system, Helvetica, Arial, sans-serif" font-size="14" font-weight="600" fill="#E6EDF3">Elementor</text><rect x="144.0" y="2" width="60" height="60" rx="14" fill="#6D28D9"/><g transform="translate(158.4 16.4) scale(1.3)" fill="none" stroke="#FFFFFF" stroke-width="2" stroke-linecap="round" stroke-linejoin="round"><rect width="18" height="7" x="3" y="3" rx="1" />
  <rect width="9" height="7" x="3" y="14" rx="1" />
  <rect width="5" height="7" x="16" y="14" rx="1" /></g><text x="174.0" y="86" text-anchor="middle" font-family="Segoe UI, -apple-system, Helvetica, Arial, sans-serif" font-size="14" font-weight="600" fill="#E6EDF3">Divi</text><rect x="260.0" y="2" width="60" height="60" rx="14" fill="#0369A1"/><g transform="translate(274.4 16.4) scale(1.3)" fill="none" stroke="#FFFFFF" stroke-width="2" stroke-linecap="round" stroke-linejoin="round"><rect width="18" height="7" x="3" y="3" rx="1" />
  <rect width="9" height="7" x="3" y="14" rx="1" />
  <rect width="5" height="7" x="16" y="14" rx="1" /></g><text x="290.0" y="86" text-anchor="middle" font-family="Segoe UI, -apple-system, Helvetica, Arial, sans-serif" font-size="14" font-weight="600" fill="#E6EDF3">WPBakery</text></svg>
