<svg xmlns="http://www.w3.org/2000/svg" width="64" height="64" viewBox="0 0 64 64" role="img" aria-label="shopping-cart"><title>shopping-cart</title><defs><linearGradient id="g" x1="0" y1="0" x2="1" y2="1"><stop offset="0" stop-color="#7C3AED"/><stop offset="1" stop-color="#2563EB"/></linearGradient></defs><rect x="0" y="0" width="64" height="64" rx="16" fill="url(#g)"/><g transform="translate(15.36 15.36) scale(1.3866666666666667)" fill="none" stroke="#FFFFFF" stroke-width="2" stroke-linecap="round" stroke-linejoin="round"><path d="m2.05 2.05 1.099-.028a1 1 0 0 1 1.008.815l2.69 14.347A1 1 0 0 0 7.83 18H18" />
  <path d="M4.563 5h16.435a1 1 0 0 1 .981 1.204l-1.026 6.226A2 2 0 0 1 18.962 14H6.25" />
  <circle cx="18" cy="20" r="2" />
  <circle cx="8" cy="20" r="2" /></g></svg>
